<?xml version="1.0" encoding="UTF-8" standalone="no"?>
<!-- Created with Inkscape (http://www.inkscape.org/) -->

<svg
   version="1.1"
   id="svg48"
   width="316.42105"
   height="107.36842"
   viewBox="0 0 316.42105 107.36842"
   sodipodi:docname="logoLicitarNegativo.svg"
   inkscape:version="1.2.2 (b0a84865, 2022-12-01)"
   xmlns:inkscape="http://www.inkscape.org/namespaces/inkscape"
   xmlns:sodipodi="http://sodipodi.sourceforge.net/DTD/sodipodi-0.dtd"
   xmlns="http://www.w3.org/2000/svg"
   xmlns:svg="http://www.w3.org/2000/svg">
  <defs
     id="defs52" />
  <sodipodi:namedview
     id="namedview50"
     pagecolor="#505050"
     bordercolor="#eeeeee"
     borderopacity="1"
     inkscape:showpageshadow="0"
     inkscape:pageopacity="0"
     inkscape:pagecheckerboard="0"
     inkscape:deskcolor="#505050"
     showgrid="false"
     inkscape:zoom="2.1980392"
     inkscape:cx="131.02587"
     inkscape:cy="25.704728"
     inkscape:window-width="1492"
     inkscape:window-height="733"
     inkscape:window-x="0"
     inkscape:window-y="25"
     inkscape:window-maximized="0"
     inkscape:current-layer="g54" />
  <g
     inkscape:groupmode="layer"
     inkscape:label="Image"
     id="g54">
    <path
       style="fill:#e6e6e6;stroke:#000080;stroke-width:2;stroke-dasharray:none"
       d="m 59.470116,55.370206 c 0,-37.578945 0,-37.578945 14.137111,-37.578945 14.137112,0 14.137112,0 12.511042,3.947365 -2.168501,5.264165 -2.679158,14.923846 -1.079791,20.42548 5.788029,19.910133 27.130182,30.192041 45.659872,21.997335 1.90039,-0.840443 3.7041,-1.528078 4.00824,-1.528078 0.30415,0 0.553,6.821053 0.553,15.157895 0,15.157895 0,15.157895 -37.894738,15.157895 -37.894736,0 -37.894736,0 -37.894736,-37.578947 z m 26.152496,27.143102 c 1.817621,-0.862522 12.220901,-11.487904 11.656775,-11.905643 -0.126676,-0.09381 -1.509272,-0.90301 -3.07243,-1.798232 -4.168736,-2.387437 -8.410244,-6.339856 -10.799892,-10.063796 -2.102078,-3.27581 -2.102078,-3.27581 -7.351781,2.340318 -7.711055,8.249272 -8.384097,12.308035 -2.943227,17.748905 4.481153,4.481154 8.394309,5.631733 12.510555,3.678448 z m 69.215918,-5.353629 c 0,-15.789474 0,-15.789474 7.23207,-15.789474 9.52153,0 12.99497,0.774403 15.72687,3.506308 3.44709,3.447085 4.41282,6.154885 4.38079,12.283166 -0.0333,6.367415 -0.64493,8.149048 -3.90592,11.377617 -3.37804,3.344457 -7.31809,4.411857 -16.28528,4.411857 -7.14853,0 -7.14853,0 -7.14853,-15.789474 z m 15.48014,8.208076 c 2.44926,-0.931207 3.49997,-2.221889 4.49188,-5.517746 0.77912,-2.588804 0.76496,-3.312498 -0.11677,-5.967124 -1.41331,-4.255062 -3.4715,-5.565311 -8.74222,-5.565311 -4.16566,0 -4.16566,0 -4.16566,8.842105 0,8.842105 0,8.842105 3.43257,8.842105 1.88792,0 4.183,-0.285316 5.1002,-0.634029 z m 16.09881,-8.208076 c 0,-15.789474 0,-15.789474 3.15789,-15.789474 3.1579,0 3.1579,0 3.1579,15.789474 0,15.789474 0,15.789474 -3.1579,15.789474 -3.15789,0 -3.15789,0 -3.15789,-15.789474 z m 18.77807,14.274271 c -5.66641,-2.776762 -8.27931,-7.262671 -8.31432,-14.274271 -0.028,-5.601143 1.09558,-8.434501 4.75157,-11.982523 5.6849,-5.517006 16.53471,-5.868024 22.68456,-0.733901 2.0543,1.715003 2.0543,1.715003 -0.21663,4.122894 -2.27093,2.40789 -2.27093,2.40789 -4.34551,1.141028 -1.14102,-0.696774 -3.13404,-1.554031 -4.42893,-1.905015 -6.65496,-1.80385 -13.51481,5.363879 -11.2612,11.766631 1.04389,2.965825 2.9405,5.041427 5.64004,6.172351 2.91558,1.221417 4.94977,1.085286 8.2913,-0.554867 2.39256,-1.174364 2.8734,-1.719689 3.04001,-3.447651 0.19792,-2.052631 0.19792,-2.052631 -4.26315,-2.052631 -4.46107,0 -4.46107,0 -4.46107,-3.157895 0,-3.157895 0,-3.157895 7.57894,-3.157895 7.57895,0 7.57895,0 7.58306,6.789474 0.004,6.789474 0.004,6.789474 -2.34639,8.829025 -3.14278,2.727038 -7.05398,3.964579 -12.45444,3.940699 -3.37164,-0.0149 -5.20458,-0.381467 -7.47784,-1.495453 z m 26.06403,-14.274271 c 0,-15.789474 0,-15.789474 3.47369,-15.789474 3.47368,0 3.47368,0 3.47368,15.789474 0,15.789474 0,15.789474 -3.47368,15.789474 -3.47369,0 -3.47369,0 -3.47369,-15.789474 z m 18.31579,3.473684 c 0,-12.315789 0,-12.315789 -4.42105,-12.315789 -4.42105,0 -4.42105,0 -4.42105,-3.473684 0,-3.473685 0,-3.473685 12.31579,-3.473685 12.31579,0 12.31579,0 12.31579,3.473685 0,3.473684 0,3.473684 -4.42105,3.473684 -4.42106,0 -4.42106,0 -4.42106,12.315789 0,12.31579 0,12.31579 -3.47368,12.31579 -3.47369,0 -3.47369,0 -3.47369,-12.31579 z m 12.67754,10.263158 c 0.31665,-1.128947 2.95067,-8.163158 5.85339,-15.631579 5.27767,-13.578947 5.27767,-13.578947 8.1056,-13.766959 2.82793,-0.188012 2.82793,-0.188012 5.53795,6.947368 1.49051,3.924459 2.961,7.774854 3.26777,8.556433 0.30676,0.781579 0.80858,2.060527 1.11514,2.842106 2.114,5.389616 4.49525,12.018637 4.49525,12.514073 0,0.325156 -1.51514,0.59119 -3.36696,0.59119 -3.62416,0 -3.6589,-0.03095 -5.48803,-4.894737 -0.77194,-2.052632 -0.77194,-2.052632 -5.66215,-2.052632 -4.8902,0 -4.8902,0 -5.92337,2.705324 -0.56825,1.487931 -1.03318,3.051089 -1.03318,3.473685 0,0.51689 -1.22356,0.76836 -3.73856,0.76836 -3.73857,0 -3.73857,0 -3.16285,-2.052632 z m 15.55464,-14.967903 c -0.71432,-2.066561 -1.49834,-3.634037 -1.74226,-3.483282 -0.4002,0.247334 -2.48992,6.026278 -2.48992,6.885648 0,0.195253 1.24446,0.355011 2.76547,0.355011 2.76547,0 2.76547,0 1.46671,-3.757377 z m 15.34677,1.231061 c 0,-15.789474 0,-15.789474 3.1579,-15.789474 3.15789,0 3.15789,0 3.15789,12.31579 0,12.315789 0,12.315789 7.89474,12.315789 7.89473,0 7.89473,0 7.89473,3.473684 0,3.473685 0,3.473685 -11.05263,3.473685 -11.05263,0 -11.05263,0 -11.05263,-15.789474 z M 7.0490633,66.107048 c 0,-2.842106 0,-2.842106 2.8421052,-2.842106 2.8421055,0 2.8421055,0 2.8421055,2.842106 0,2.842105 0,2.842105 -2.8421055,2.842105 -2.8421052,0 -2.8421052,0 -2.8421052,-2.842105 z M 27.891169,58.84389 c 0,-5.052632 0,-5.052632 5.052631,-5.052632 5.052632,0 5.052632,0 5.052632,5.052632 0,5.052631 0,5.052631 -5.052632,5.052631 -5.052631,0 -5.052631,0 -5.052631,-5.052631 z m 84.890741,-5.73484 c -3.82873,-0.911967 -9.08597,-4.318794 -11.4384,-7.412383 -5.818289,-7.651415 -5.02094,-19.28418 1.78855,-26.093676 3.85044,-3.85043 7.01665,-5.15559 13.27683,-5.47287 4.81834,-0.24421 5.86815,-0.0925 8.87093,1.28225 4.50936,2.06445 7.43249,4.71971 9.69783,8.809086 1.69473,3.059335 1.86061,3.894998 1.85785,9.359275 -0.003,5.293346 -0.20371,6.381099 -1.70695,9.235799 -4.128,7.839236 -13.84899,12.316575 -22.34664,10.292519 z m 12.19773,-8.558056 c 2.9332,-1.682607 5.51622,-5.504325 6.1815,-9.145861 1.13998,-6.239854 -3.96054,-13.222525 -10.74366,-14.708192 -1.75876,-0.38521 -1.71532,-0.31135 0.60531,1.029231 1.37503,0.794324 3.3559,2.661957 4.40194,4.150296 1.5645,2.225998 1.94037,3.457548 2.1187,6.942009 0.27121,5.298882 -1.38914,8.906454 -5.547,12.052397 -3.24964,2.458759 -1.54131,2.27558 2.98321,-0.31988 z M 12.101695,45.896521 c 0,-6.631578 0,-6.631578 6.631579,-6.631578 6.631579,0 6.631579,0 6.631579,6.631578 0,6.631579 0,6.631579 -6.631579,6.631579 -6.631579,0 -6.631579,0 -6.631579,-6.631579 z m 190.101175,5.40989 c -7.17598,-2.182831 -11.36434,-7.973656 -11.36434,-15.712313 0,-6.14903 2.4813,-10.427504 8.17628,-14.098266 2.47945,-1.598151 3.38519,-1.809841 7.74373,-1.809841 3.61474,0 5.65325,0.33721 7.61608,1.259852 2.68693,1.263008 6.14812,4.053978 6.14812,4.957606 0,0.265169 -0.99148,1.443108 -2.20329,2.617643 -2.2033,2.135518 -2.2033,2.135518 -3.63158,0.829351 -5.06276,-4.629894 -10.83694,-4.353042 -14.69456,0.704553 -2.91857,3.826436 -1.94688,10.854119 1.8442,13.338129 3.64541,2.388564 9.43372,1.899471 12.4533,-1.052261 1.96003,-1.91599 1.96003,-1.91599 4.24691,0.188255 1.25779,1.157334 2.43212,2.203632 2.60964,2.325106 0.17751,0.121475 -0.86612,1.280052 -2.31919,2.574618 -4.16374,3.709562 -11.52977,5.427561 -16.6253,3.877568 z M 155.47011,35.475469 c 0,-15.789478 0,-15.789478 3.47369,-15.789478 3.47368,0 3.47368,0 3.47368,12.315794 0,12.315789 0,12.315789 7.57895,12.315789 7.57894,0 7.57894,0 7.57894,3.473684 0,3.473684 0,3.473684 -11.05263,3.473684 -11.05263,0 -11.05263,0 -11.05263,-15.789473 z m 24.63158,-0.03152 c 0,-15.820988 0,-15.820988 3.63158,-15.631578 3.63158,0.18941 3.63158,0.18941 3.80051,15.820993 0.16893,15.631578 0.16893,15.631578 -3.63158,15.631578 -3.80051,0 -3.80051,0 -3.80051,-15.820991 z m 43.57895,0.03152 c 0,-15.789478 0,-15.789478 3.47368,-15.789478 3.47369,0 3.47369,0 3.47369,15.789478 0,15.789473 0,15.789473 -3.47369,15.789473 -3.47368,0 -3.47368,0 -3.47368,-15.789473 z m 17.68421,3.473684 c 0,-12.315789 0,-12.315789 -4.45406,-12.315789 -4.45406,0 -4.45406,0 -4.26316,-3.31579 0.1909,-3.315793 0.1909,-3.315793 12.66459,-3.487033 12.47368,-0.17125 12.47368,-0.17125 12.47368,3.315787 0,3.487036 0,3.487036 -4.42105,3.487036 -4.42105,0 -4.42105,0 -4.42105,12.315789 0,12.315789 0,12.315789 -3.78948,12.315789 -3.78947,0 -3.78947,0 -3.78947,-12.315789 z m 12.63158,11.989114 c 0,-0.687609 9.74748,-26.153984 10.81053,-28.243702 0.30684,-0.603181 0.55789,-1.526866 0.55789,-2.052632 0,-0.720832 0.74598,-0.955942 3.03313,-0.955942 3.03313,0 3.03313,0 4.15888,3.315794 0.61917,1.823684 1.42387,4.026316 1.78822,4.894737 0.36435,0.868421 0.87661,2.147368 1.13836,2.842105 1.08782,2.887377 6.9115,18.401651 7.29019,19.421052 0.36242,0.975623 -0.0349,1.105263 -3.38769,1.105263 -3.79827,0 -3.79827,0 -4.89087,-3.473684 -1.09261,-3.473684 -1.09261,-3.473684 -5.9742,-3.473684 -4.8816,0 -4.8816,0 -6.13866,3.315789 -1.25707,3.31579 -1.25707,3.31579 -4.82143,3.505203 -1.9604,0.104177 -3.56435,0.01404 -3.56435,-0.200299 z M 270.16665,34.84389 c -0.73015,-2.084211 -1.50027,-3.789474 -1.71139,-3.789474 -0.2111,0 -0.96609,1.705263 -1.67774,3.789474 -1.29392,3.789474 -1.29392,3.789474 1.71138,3.789474 3.00529,0 3.00529,0 1.67775,-3.789474 z m 14.77715,0.631579 c 0,-15.789478 0,-15.789478 6.78947,-15.785948 7.91286,0.004 11.11452,0.73537 13.37995,3.056016 4.63003,4.742875 4.06675,11.478215 -1.32506,15.844234 -1.26421,1.023694 -1.23617,1.10615 2.27785,6.697918 3.55782,5.661464 3.55782,5.661464 -0.38579,5.852868 -4.33968,0.210628 -4.70486,-0.03491 -7.17411,-4.823902 -2.26298,-4.388924 -3.49104,-5.788555 -5.079,-5.788555 -1.50641,0 -1.53595,0.103243 -1.53595,5.368421 0,5.368421 0,5.368421 -3.47368,5.368421 -3.47368,0 -3.47368,0 -3.47368,-15.789473 z m 15.03157,-2.652632 c 0.41685,-0.416842 0.7579,-1.688491 0.7579,-2.825886 0,-1.651245 -0.37551,-2.262176 -1.86337,-3.031579 -1.02486,-0.529973 -3.01433,-0.963587 -4.42106,-0.963587 -2.55768,0 -2.55768,0 -2.55768,3.789473 0,3.789474 0,3.789474 3.66316,3.789474 2.01474,0 4.00421,-0.341053 4.42105,-0.757895 z M 27.891169,27.580732 c 0,-9.789471 0,-9.789471 9.789473,-9.789471 9.789474,0 9.789474,0 9.789474,9.789471 0,9.789474 0,9.789474 -9.789474,9.789474 -9.789473,0 -9.789473,0 -9.789473,-9.789474 z M 2.6280107,22.84389 c 0,-5.052629 0,-5.052629 5.0526315,-5.052629 5.0526318,0 5.0526318,0 5.0526318,5.052629 0,5.052632 0,5.052632 -5.0526318,5.052632 -5.0526315,0 -5.0526315,0 -5.0526315,-5.052632 z"
       id="path216"
       sodipodi:nodetypes="sssssssssssssssssssssssssssssssssssssssssssssssssccsssssssssssssssssssssssssssssssssssssssssssssssssssssssscscssssssssssssssssssssssssssssssssssssssssssssssssssssssssssssssssssssssssssssscssssssssssssssssssssssssss" />
  </g>
</svg>
