<?xml version="1.0" encoding="UTF-8" standalone="no"?>
<!-- Created with Inkscape (http://www.inkscape.org/) -->

<svg
   version="1.1"
   id="svg48"
   width="316.42105"
   height="107.36842"
   viewBox="0 0 316.42105 107.36842"
   sodipodi:docname="logoLicitar.svg"
   inkscape:version="1.2.2 (b0a84865, 2022-12-01)"
   xmlns:inkscape="http://www.inkscape.org/namespaces/inkscape"
   xmlns:sodipodi="http://sodipodi.sourceforge.net/DTD/sodipodi-0.dtd"
   xmlns="http://www.w3.org/2000/svg"
   xmlns:svg="http://www.w3.org/2000/svg">
  <defs
     id="defs52" />
  <sodipodi:namedview
     id="namedview50"
     pagecolor="#505050"
     bordercolor="#eeeeee"
     borderopacity="1"
     inkscape:showpageshadow="0"
     inkscape:pageopacity="0"
     inkscape:pagecheckerboard="0"
     inkscape:deskcolor="#505050"
     showgrid="false"
     inkscape:zoom="2.1980392"
     inkscape:cx="132.84568"
     inkscape:cy="25.249778"
     inkscape:window-width="1492"
     inkscape:window-height="733"
     inkscape:window-x="0"
     inkscape:window-y="25"
     inkscape:window-maximized="0"
     inkscape:current-layer="g54" />
  <g
     inkscape:groupmode="layer"
     inkscape:label="Image"
     id="g54">
    <path
       style="fill:#000000;stroke-width:0.631579"
       d="m 226.10526,104.56378 c 0,-0.34737 0.29401,-0.63158 0.65336,-0.63158 0.35934,0 -0.20908,-0.84305 -1.26316,-1.87345 -2.04438,-1.99843 -2.57248,-5.194439 -1.26272,-7.641751 0.83323,-1.556892 5.66199,-1.790804 5.66199,-0.274269 0,0.626741 -0.62684,0.947368 -1.85217,0.947368 -1.29749,0 -1.97224,0.378291 -2.25309,1.263158 -0.70239,2.213039 0.21939,3.789474 2.21581,3.789474 1.90715,0 2.99167,0.89775 1.89976,1.57258 -0.35304,0.21819 -0.64188,1.09046 -0.64188,1.93838 0,1.2234 -0.32597,1.54167 -1.57895,1.54167 -0.86842,0 -1.57895,-0.28421 -1.57895,-0.63158 z M 59.368421,96.353256 c 0,-5.684211 0,-5.684211 3.112781,-5.684211 3.568313,0 5.102753,1.1088 5.088075,3.676693 -0.01453,2.53632 -0.802414,3.330372 -3.688781,3.717517 -2.378808,0.319061 -2.617339,0.516151 -2.617339,2.162635 0,1.18924 -0.325453,1.81158 -0.947368,1.81158 -0.77193,0 -0.947368,-1.05264 -0.947368,-5.684214 z m 5.316764,-0.383362 c 1.292217,-0.495872 1.292217,-2.526878 0,-3.02275 -2.359574,-0.905456 -3.422028,-0.436212 -3.422028,1.511375 0,1.947587 1.062454,2.416832 3.422028,1.511375 z m 5.420078,0.06757 c 0,-4.912282 0.171745,-5.999999 0.947368,-5.999999 0.763156,0 0.947368,0.982458 0.947368,5.052631 0,2.94737 0.26316,5.052634 0.631579,5.052634 0.347369,0 0.631579,0.42632 0.631579,0.94737 0,0.58947 -0.596488,0.94737 -1.578947,0.94737 -1.573408,0 -1.578947,-0.021 -1.578947,-6.000006 z m 5.207684,5.270846 c -1.995853,-1.995852 -0.227324,-4.955056 2.961322,-4.955056 0.717575,0 1.304678,-0.284211 1.304678,-0.631579 0,-0.347368 -0.994737,-0.631579 -2.210527,-0.631579 -1.57848,0 -2.210526,-0.280768 -2.210526,-0.981973 0,-0.777442 0.624859,-0.94188 3,-0.789473 3,0.192499 3,0.192499 3,4.297761 0,4.105269 0,4.105269 -2.529158,4.291899 -1.420282,0.10481 -2.874044,-0.15826 -3.315789,-0.6 z m 4.266,-2.112952 c 0,-1.019343 -0.578457,-1.170467 -2.15887,-0.564006 -1.537572,0.590026 -1.184046,1.511378 0.579922,1.511378 0.982459,0 1.578948,-0.357902 1.578948,-0.947372 z m 6.105265,2.421052 c -0.231581,-0.23157 -0.421055,-1.794732 -0.421055,-3.473685 0,-1.678945 -0.28421,-3.052629 -0.631579,-3.052629 -0.347368,0 -0.631579,-0.426316 -0.631579,-0.947368 0,-0.521053 0.284211,-0.947369 0.631579,-0.947369 0.347369,0 0.631579,-0.426316 0.631579,-0.947368 0,-0.521053 0.426316,-0.947369 0.947369,-0.947369 0.521052,0 0.947368,0.426316 0.947368,0.947369 0,0.589471 0.596488,0.947368 1.578947,0.947368 0.982459,0 1.578948,0.357897 1.578948,0.947369 0,0.589471 -0.596489,0.947368 -1.578948,0.947368 -1.421052,0 -1.578947,0.252632 -1.578947,2.526315 0,2.273687 0.157895,2.526319 1.578947,2.526319 0.982459,0 1.578948,0.3579 1.578948,0.94737 0,0.65263 -0.654973,0.94737 -2.105261,0.94737 -1.157899,0 -2.294741,-0.18948 -2.526316,-0.42106 z m 6.976484,0.0291 c -0.721674,-0.72167 -0.519032,-3.707627 0.307724,-4.534382 0.416842,-0.416841 1.570459,-0.757894 2.563592,-0.757894 1.042964,0 1.640817,-0.266779 1.415356,-0.631579 -0.214687,-0.347368 -1.226198,-0.631579 -2.247802,-0.631579 -1.259116,0 -1.857462,-0.316326 -1.857462,-0.981973 0,-0.777442 0.624859,-0.94188 3,-0.789473 3,0.192499 3,0.192499 3,4.297761 0,4.105269 0,4.105269 -2.865618,4.292279 -1.576093,0.10286 -3.068198,-0.0155 -3.31579,-0.26316 z m 4.602461,-2.494092 c 0,-0.658326 -0.460711,-0.923507 -1.371581,-0.78948 -2.022,0.297524 -2.238556,1.780772 -0.259996,1.780772 1.061369,0 1.631577,-0.346442 1.631577,-0.991292 z m 5.052633,-0.587659 c 0,-1.910525 -0.28421,-3.473683 -0.63158,-3.473683 -0.34737,0 -0.63158,-0.426316 -0.63158,-0.947368 0,-0.521053 0.28421,-0.947369 0.63158,-0.947369 0.34737,0 0.63158,-0.511579 0.63158,-1.136842 0,-1.640507 1.2531,-2.652631 3.28421,-2.652631 2.11922,0 2.4562,1.70568 0.39684,2.008705 -2.022,0.297524 -2.23856,1.780768 -0.26,1.780768 1.02924,0 1.63158,0.349743 1.63158,0.947369 0,0.589471 -0.59649,0.947368 -1.57895,0.947368 -1.49282,0 -1.57894,0.189474 -1.57894,3.473683 0,2.666671 -0.2201,3.473691 -0.94737,3.473691 -0.72728,0 -0.94737,-0.80702 -0.94737,-3.473691 z m 7.70526,2.715791 c -0.41684,-0.41684 -0.75789,-2.065262 -0.75789,-3.663159 0,-3.523161 0.788,-4.421052 3.87998,-4.421052 2.6753,0 4.33054,1.689834 4.33054,4.421052 0,2.731219 -1.65524,4.421059 -4.33054,4.421059 -1.30031,0 -2.70525,-0.34106 -3.12209,-0.7579 z m 4.80655,-3.505264 c -0.16992,-2.052991 -0.40631,-2.36842 -1.77497,-2.36842 -1.17137,0 -1.6326,0.378675 -1.78679,1.466987 -0.32088,2.264865 0.33097,3.269857 2.12088,3.269857 1.50532,0 1.62114,-0.190382 1.44088,-2.368424 z m 4.54082,0.646307 c 0,-2.043031 0.34047,-4.049936 0.75789,-4.467359 1.08964,-1.089638 3.66316,-0.95652 3.66316,0.189474 0,0.521052 -0.41146,0.947368 -0.91436,0.947368 -0.65749,0 -0.96799,0.929823 -1.10526,3.309871 -0.14755,2.558103 -0.44194,3.357603 -1.29617,3.520003 -0.95102,0.18079 -1.10526,-0.30753 -1.10526,-3.499357 z m 6.31579,0.26388 c 0,-5.02306 0.61147,-5.514422 6.63158,-5.328984 5.05263,0.15564 5.05263,0.15564 5.23938,4.418797 0.15354,3.504984 0.0131,4.263164 -0.78947,4.263164 -0.76225,0 -0.97623,-0.76138 -0.97623,-3.473691 0,-3.052628 -0.1531,-3.473683 -1.26316,-3.473683 -1.11005,0 -1.26315,0.421055 -1.26315,3.473683 0,2.666671 -0.2201,3.473691 -0.94737,3.473691 -0.69523,0 -0.94737,-0.72281 -0.94737,-2.715792 0,-2.738169 -0.82472,-4.231582 -2.33684,-4.231582 -0.57416,0 -0.82105,1.044537 -0.82105,3.473683 0,3.052631 -0.15311,3.473691 -1.26316,3.473691 -1.10454,0 -1.26316,-0.42106 -1.26316,-3.352977 z m 14.92171,2.385307 c -1.07206,-2.793743 0.29469,-4.716546 3.35256,-4.716546 0.71757,0 1.30468,-0.284211 1.30468,-0.631579 0,-0.347368 -0.99474,-0.631579 -2.21053,-0.631579 -1.57848,0 -2.21053,-0.280768 -2.21053,-0.981973 0,-0.777442 0.62486,-0.94188 3,-0.789473 3,0.192499 3,0.192499 3,4.297761 0,4.105269 0,4.105269 -2.92039,4.294509 -2.2364,0.14493 -3.01301,-0.0521 -3.31579,-0.84112 z m 4.65724,-1.874442 c 0,-1.019343 -0.57846,-1.170467 -2.15887,-0.564006 -1.53758,0.590026 -1.18405,1.511378 0.57992,1.511378 0.98246,0 1.57895,-0.357902 1.57895,-0.947372 z m 9.4959,1.620472 c -0.35959,-0.6719 -0.6538,-2.111638 -0.6538,-3.199419 0,-3.284374 0.98001,-4.421052 3.81169,-4.421052 2.24999,0 2.5041,-0.160231 2.5041,-1.578947 0,-0.982459 0.3579,-1.578947 0.94737,-1.578947 0.75104,0 0.94737,0.907711 0.94737,4.379936 0,2.408969 -0.27718,5.108967 -0.61595,5.999999 -0.53494,1.407 -0.98886,1.62007 -3.45146,1.62007 -2.157,0 -2.99196,-0.29233 -3.48932,-1.22164 z m 5.41605,-2.305508 c 0.52431,-2.088996 -0.96116,-3.723592 -2.84153,-3.126788 C 156.39997,95.679854 156,96.330734 156,97.55371 c 0,2.127608 0.41058,2.58902 2.30375,2.58902 1.04513,0 1.57841,-0.465182 1.87136,-1.632406 z m 4.95326,2.055438 c -0.20316,-0.809452 -0.27962,-2.727873 -0.16992,-4.263165 0.19944,-2.791446 0.19944,-2.791446 3.08444,-2.979246 2.59546,-0.16896 2.96188,-0.01907 3.65111,1.493621 1.23744,2.715896 0.41754,4.062599 -2.47341,4.062599 -1.36606,0 -2.48375,0.284209 -2.48375,0.631579 0,0.34737 1.13684,0.631582 2.52632,0.631582 1.82456,0 2.52631,0.26316 2.52631,0.94737 0,0.71531 -0.77059,0.94737 -3.14586,0.94737 -2.76773,0 -3.19026,-0.1769 -3.51524,-1.47171 z m 4.45058,-4.844085 c -0.21469,-0.347368 -0.94199,-0.631579 -1.61623,-0.631579 -0.67423,0 -1.22588,0.284211 -1.22588,0.631579 0,0.347368 0.7273,0.631579 1.61622,0.631579 0.91665,0 1.44727,-0.273373 1.22589,-0.631579 z m 10.21052,5.894735 c -0.23158,-0.23157 -0.42105,-2.789471 -0.42105,-5.684211 0,-4.257309 0.18105,-5.263156 0.94737,-5.263156 0.75789,0 0.94737,0.947369 0.94737,4.736843 0,4.736844 0,4.736844 2.52631,4.736844 1.82456,0 2.52632,0.26316 2.52632,0.94737 0,0.71143 -0.76023,0.94737 -3.05263,0.94737 -1.67895,0 -3.24211,-0.18948 -3.47369,-0.42106 z m 8.42105,-4.046307 c 0,-3.913862 0.13694,-4.441255 1.10527,-4.256632 0.89918,0.171442 1.14008,1.004419 1.29201,4.467365 0.17234,3.928124 0.0871,4.256634 -1.10526,4.256634 -1.17986,0 -1.29202,-0.3878 -1.29202,-4.467367 z m 5.40424,3.063677 c -2.26315,-3.231102 -0.47698,-7.438421 3.15789,-7.438421 1.51203,0 2.17472,0.288689 2.17472,0.947369 0,0.576461 -0.5879,0.947368 -1.50162,0.947368 -2.00595,0 -3.15613,1.497265 -2.66214,3.465479 0.33002,1.314893 0.77548,1.587155 2.59684,1.587155 1.53317,0 2.1985,0.2867 2.1985,0.94737 0,1.61874 -4.76618,1.25409 -5.96419,-0.45632 z m 7.85892,-3.017369 c 0,-3.508774 0.19549,-4.421052 0.94737,-4.421052 0.75188,0 0.94737,0.912278 0.94737,4.421052 0,3.508779 -0.19549,4.421059 -0.94737,4.421059 -0.75188,0 -0.94737,-0.91228 -0.94737,-4.421059 z m 6.06758,3.422029 c -0.21086,-0.54946 -0.38337,-2.112621 -0.38337,-3.473686 0,-1.361058 -0.28421,-2.474658 -0.63158,-2.474658 -0.34736,0 -0.63157,-0.426316 -0.63157,-0.947368 0,-0.521053 0.28421,-0.947369 0.63157,-0.947369 0.34737,0 0.63158,-0.426316 0.63158,-0.947368 0,-0.521053 0.42632,-0.947369 0.94737,-0.947369 0.52105,0 0.94737,0.426316 0.94737,0.947369 0,0.589471 0.59649,0.947368 1.57895,0.947368 0.98246,0 1.57894,0.357897 1.57894,0.947369 0,0.589471 -0.59648,0.947368 -1.57894,0.947368 -1.42106,0 -1.57895,0.252632 -1.57895,2.526315 0,2.273687 0.15789,2.526319 1.57895,2.526319 0.98246,0 1.57894,0.3579 1.57894,0.94737 0,1.34181 -4.15217,1.29587 -4.66926,-0.0517 z m 6.98506,0.57797 c -0.6978,-0.69778 -0.47373,-3.694694 0.33684,-4.505262 0.41684,-0.416841 1.57046,-0.757894 2.56359,-0.757894 1.04296,0 1.64081,-0.266779 1.41535,-0.631579 -0.21468,-0.347368 -1.22619,-0.631579 -2.2478,-0.631579 -1.23002,0 -1.85746,-0.320015 -1.85746,-0.947368 0,-0.696562 0.72558,-0.947369 2.74072,-0.947369 2.32406,0 2.85217,0.244573 3.47369,1.608663 0.40313,0.884767 0.73296,2.150343 0.73296,2.812389 0,0.662046 -0.32983,1.927627 -0.73296,2.812389 -0.61498,1.34973 -1.15717,1.60867 -3.36842,1.60867 -1.44951,0 -2.82494,-0.18948 -3.05651,-0.42106 z m 4.63157,-2.464972 c 0,-0.658326 -0.46071,-0.923507 -1.37158,-0.78948 -2.022,0.297524 -2.23855,1.780772 -0.25999,1.780772 1.06136,0 1.63157,-0.346442 1.63157,-0.991292 z m 14.03026,2.351572 c -1.14575,-0.72698 -1.62564,-4.508843 -0.83378,-6.570809 0.58533,-1.524183 1.00143,-1.736842 3.39842,-1.736842 1.50228,0 3.07247,0.341053 3.48931,0.757895 1.05575,1.055747 0.9547,6.082906 -0.14436,7.181956 -0.97648,0.97649 -4.5953,1.20171 -5.90959,0.3678 z m 4.60132,-3.886599 c 0,-1.760203 -0.26858,-2.2489 -1.31843,-2.3989 -1.80577,-0.258007 -3.02263,1.373406 -2.51954,3.377891 0.33169,1.321586 0.73023,1.589868 2.12316,1.429258 1.50107,-0.173072 1.71481,-0.473252 1.71481,-2.408249 z m 5.12021,3.422029 c -0.21086,-0.54946 -0.38337,-2.089379 -0.38337,-3.422029 0,-3.864214 0.43752,-4.421052 3.47369,-4.421052 2.9344,0 3.47368,0.596324 3.47368,3.84113 0,1.729206 -0.15608,1.84308 -2.52631,1.84308 -1.38948,0 -2.52632,0.284209 -2.52632,0.631579 0,0.34737 1.13684,0.631582 2.52632,0.631582 1.82456,0 2.52631,0.26316 2.52631,0.94737 0,1.38925 -6.02928,1.3418 -6.564,-0.0517 z m 4.66927,-5.316765 c 0,-0.347368 -0.55165,-0.631579 -1.22589,-0.631579 -0.67423,0 -1.40153,0.284211 -1.61622,0.631579 -0.22138,0.358206 0.30923,0.631579 1.22588,0.631579 0.88892,0 1.61623,-0.284211 1.61623,-0.631579 z M 252,101.0901 c 0,-0.66166 0.66667,-0.94737 2.21052,-0.94737 2.69133,0 2.83438,-0.678662 0.37272,-1.768302 -2.0498,-0.907333 -2.79776,-2.245067 -2.23921,-4.004886 0.53717,-1.692486 5.97176,-1.726926 5.97176,-0.03783 0,0.926772 -0.40767,1.088741 -2.21053,0.878267 -2.79779,-0.326621 -2.80969,0.168126 -0.0358,1.484463 2.19468,1.041441 2.8475,2.212104 2.36318,4.237778 C 258.07572,102.42537 252,102.57451 252,101.0901 Z m 14.45628,-0.0844 c -1.12902,-1.360382 -1.12902,-7.944528 0,-9.304911 1.21286,-1.46141 5.87305,-1.382034 7.2353,0.12324 1.51335,1.672225 1.44041,7.765309 -0.10973,9.168171 -1.52342,1.37867 -5.98556,1.38713 -7.12557,0.0135 z m 5.43845,-4.652454 c 0,-3.438594 -0.0191,-3.473684 -1.89473,-3.473684 -1.86627,0 -1.89761,0.0552 -2.08542,3.67404 -0.19068,3.674038 -0.19068,3.674038 1.89474,3.473688 2.08244,-0.200072 2.08541,-0.205322 2.08541,-3.674044 z m 5.36843,2.021052 c 0,-4.290593 0.66787,-5.178947 3.89357,-5.178947 2.91758,0 3.68537,1.175564 3.68537,5.64269 0,2.371539 -0.23659,3.199419 -0.91436,3.199419 -0.65774,0 -0.96794,-0.93058 -1.10526,-3.315794 -0.17646,-3.064881 -0.31039,-3.315788 -1.76985,-3.315788 -1.45947,0 -1.59339,0.250907 -1.76985,3.315788 -0.13732,2.385214 -0.44752,3.315794 -1.10526,3.315794 -0.693,0 -0.91436,-0.88684 -0.91436,-3.663162 z m 10.52631,3.242102 c -0.23158,-0.23157 -0.42105,-2.931574 -0.42105,-5.999998 0,-4.538009 0.17676,-5.578945 0.94737,-5.578945 0.75722,0 0.94737,0.943225 0.94737,4.699566 0,2.584761 0.28421,4.875215 0.63157,5.089905 1.06814,0.660152 0.699,2.210532 -0.52631,2.210532 -0.63685,0 -1.34737,-0.18948 -1.57895,-0.42106 z m 5.26316,-3.999997 c 0,-3.508774 0.19549,-4.421052 0.94737,-4.421052 0.75188,0 0.94737,0.912278 0.94737,4.421052 0,3.508777 -0.19549,4.421057 -0.94737,4.421057 -0.75188,0 -0.94737,-0.91228 -0.94737,-4.421057 z m 4.42105,1.221638 c 0,-4.626252 0.73133,-5.64269 4.05991,-5.64269 3.21444,0 3.51904,0.46915 3.51904,5.420077 0,2.565852 -0.22877,3.422032 -0.91436,3.422032 -0.65775,0 -0.96794,-0.93058 -1.10527,-3.315794 -0.17645,-3.064881 -0.31038,-3.315788 -1.76984,-3.315788 -1.45947,0 -1.5934,0.250907 -1.76985,3.315788 -0.13733,2.385214 -0.44752,3.315794 -1.10527,3.315794 -0.67776,0 -0.91436,-0.82788 -0.91436,-3.199419 z m 10.72121,1.579349 c -0.33877,-0.891032 -0.61595,-2.151478 -0.61595,-2.800987 0,-0.64951 0.27718,-1.909957 0.61595,-2.800989 0.51595,-1.357035 1.0161,-1.620063 3.08056,-1.620063 2.88611,0 4.05452,1.113619 3.77019,3.593388 -0.17789,1.551327 -0.50203,1.799733 -2.57196,1.971055 -3.16674,0.262093 -3.03877,1.382926 0.1579,1.382926 1.82456,0 2.52631,0.26316 2.52631,0.94737 0,0.71641 -0.77366,0.94737 -3.17352,0.94737 -2.82544,0 -3.24109,-0.1777 -3.78948,-1.62007 z m 4.75248,-4.695723 c -0.21469,-0.347368 -0.94199,-0.631579 -1.61623,-0.631579 -0.67423,0 -1.22588,0.284211 -1.22588,0.631579 0,0.347368 0.7273,0.631579 1.61622,0.631579 0.91665,0 1.44727,-0.273373 1.22589,-0.631579 z M 188.64474,92.15589 c -0.89402,-0.894013 -0.38813,-2.118423 0.87525,-2.118423 0.88293,0 1.24295,0.342978 1.10526,1.052924 -0.22543,1.162408 -1.30358,1.742438 -1.98051,1.065499 z m 13.25,-0.01314 c -0.76922,-0.769244 -0.43521,-2.105286 0.52631,-2.105286 0.52631,0 0.94737,0.561404 0.94737,1.263157 0,1.258257 -0.67297,1.642813 -1.47368,0.842104 z m 31.40611,-0.577971 c 0.21085,-0.549461 0.38336,-1.117882 0.38336,-1.263158 0,-0.590576 2.32609,-0.211724 3.03158,0.493763 0.58947,0.589471 0.75789,0.589471 0.75789,0 0,-0.416843 0.28421,-0.757895 0.63158,-0.757895 0.34737,0 0.63158,0.568421 0.63158,1.263158 0,1.080366 -0.42105,1.263158 -2.90968,1.263158 -2.39376,0 -2.8417,-0.177139 -2.52631,-0.999026 z m 59.75178,-0.211528 c 0,-0.775787 0.4078,-1.315787 0.99367,-1.315787 0.58816,0 0.91035,0.429707 0.78948,1.052924 -0.3073,1.584486 -1.78315,1.802052 -1.78315,0.262863 z M 58.105263,41.721678 c 0,-37.5789455 0,-37.5789455 14.137111,-37.5789455 14.137112,0 14.137112,0 12.511042,3.947365 -2.168501,5.2641655 -2.679158,14.9238465 -1.079791,20.4254805 5.788029,19.910133 27.130185,30.192041 45.659875,21.997335 1.90039,-0.840443 3.7041,-1.528078 4.00824,-1.528078 0.30415,0 0.553,6.821053 0.553,15.157895 0,15.157895 0,15.157895 -37.894741,15.157895 -37.894736,0 -37.894736,0 -37.894736,-37.578947 z M 84.257759,68.86478 C 86.07538,68.002258 96.47866,57.376876 95.914534,56.959137 c -0.126676,-0.09381 -1.509272,-0.90301 -3.07243,-1.798232 -4.168736,-2.387437 -8.410244,-6.339856 -10.799892,-10.063796 -2.102078,-3.27581 -2.102078,-3.27581 -7.351781,2.340318 -7.711055,8.249272 -8.384097,12.308035 -2.943227,17.748905 4.481153,4.481154 8.394309,5.631733 12.510555,3.678448 z m 69.215921,-5.353629 c 0,-15.789474 0,-15.789474 7.23207,-15.789474 9.52153,0 12.99497,0.774403 15.72687,3.506308 3.44709,3.447085 4.41282,6.154885 4.38079,12.283166 -0.0333,6.367415 -0.64493,8.149048 -3.90592,11.377617 -3.37804,3.344457 -7.31809,4.411857 -16.28528,4.411857 -7.14853,0 -7.14853,0 -7.14853,-15.789474 z m 15.48014,8.208076 c 2.44926,-0.931207 3.49997,-2.221889 4.49188,-5.517746 0.77912,-2.588804 0.76496,-3.312498 -0.11677,-5.967124 -1.41331,-4.255062 -3.4715,-5.565311 -8.74222,-5.565311 -4.16566,0 -4.16566,0 -4.16566,8.842105 0,8.842105 0,8.842105 3.43257,8.842105 1.88792,0 4.183,-0.285316 5.1002,-0.634029 z m 16.09881,-8.208076 c 0,-15.789474 0,-15.789474 3.15789,-15.789474 3.1579,0 3.1579,0 3.1579,15.789474 0,15.789474 0,15.789474 -3.1579,15.789474 -3.15789,0 -3.15789,0 -3.15789,-15.789474 z m 18.77807,14.274271 c -5.66641,-2.776762 -8.27931,-7.262671 -8.31432,-14.274271 -0.028,-5.601143 1.09558,-8.434501 4.75157,-11.982523 5.6849,-5.517006 16.53471,-5.868024 22.68456,-0.733901 2.0543,1.715003 2.0543,1.715003 -0.21663,4.122894 -2.27093,2.40789 -2.27093,2.40789 -4.34551,1.141028 -1.14102,-0.696774 -3.13404,-1.554031 -4.42893,-1.905015 -6.65496,-1.80385 -13.51481,5.363879 -11.2612,11.766631 1.04389,2.965825 2.9405,5.041427 5.64004,6.172351 2.91558,1.221417 4.94977,1.085286 8.2913,-0.554867 2.39256,-1.174364 2.8734,-1.719689 3.04001,-3.447651 0.19792,-2.052631 0.19792,-2.052631 -4.26315,-2.052631 -4.46107,0 -4.46107,0 -4.46107,-3.157895 0,-3.157895 0,-3.157895 7.57894,-3.157895 7.57895,0 7.57895,0 7.58306,6.789474 0.004,6.789474 0.004,6.789474 -2.34639,8.829025 -3.14278,2.727038 -7.05398,3.964579 -12.45444,3.940699 -3.37164,-0.0149 -5.20458,-0.381467 -7.47784,-1.495453 z m 26.06403,-14.274271 c 0,-15.789474 0,-15.789474 3.47369,-15.789474 3.47368,0 3.47368,0 3.47368,15.789474 0,15.789474 0,15.789474 -3.47368,15.789474 -3.47369,0 -3.47369,0 -3.47369,-15.789474 z m 18.31579,3.473684 c 0,-12.315789 0,-12.315789 -4.42105,-12.315789 -4.42105,0 -4.42105,0 -4.42105,-3.473684 0,-3.473685 0,-3.473685 12.31579,-3.473685 12.31579,0 12.31579,0 12.31579,3.473685 0,3.473684 0,3.473684 -4.42105,3.473684 -4.42106,0 -4.42106,0 -4.42106,12.315789 0,12.31579 0,12.31579 -3.47368,12.31579 -3.47369,0 -3.47369,0 -3.47369,-12.31579 z m 12.67754,10.263158 c 0.31665,-1.128947 2.95067,-8.163158 5.85339,-15.631579 5.27767,-13.578947 5.27767,-13.578947 8.1056,-13.766959 2.82793,-0.188012 2.82793,-0.188012 5.53795,6.947368 1.49051,3.924459 2.961,7.774854 3.26777,8.556433 0.30676,0.781579 0.80858,2.060527 1.11514,2.842106 2.114,5.389616 4.49525,12.018637 4.49525,12.514073 0,0.325156 -1.51514,0.59119 -3.36696,0.59119 -3.62416,0 -3.6589,-0.03095 -5.48803,-4.894737 -0.77194,-2.052632 -0.77194,-2.052632 -5.66215,-2.052632 -4.8902,0 -4.8902,0 -5.92337,2.705324 -0.56825,1.487931 -1.03318,3.051089 -1.03318,3.473685 0,0.51689 -1.22356,0.76836 -3.73856,0.76836 -3.73857,0 -3.73857,0 -3.16285,-2.052632 z M 276.4427,62.28009 c -0.71432,-2.066561 -1.49834,-3.634037 -1.74226,-3.483282 -0.4002,0.247334 -2.48992,6.026278 -2.48992,6.885648 0,0.195253 1.24446,0.355011 2.76547,0.355011 2.76547,0 2.76547,0 1.46671,-3.757377 z m 15.34677,1.231061 c 0,-15.789474 0,-15.789474 3.1579,-15.789474 3.15789,0 3.15789,0 3.15789,12.31579 0,12.315789 0,12.315789 7.89474,12.315789 7.89473,0 7.89473,0 7.89473,3.473684 0,3.473685 0,3.473685 -11.05263,3.473685 -11.05263,0 -11.05263,0 -11.05263,-15.789474 z M 5.6842105,52.45852 c 0,-2.842106 0,-2.842106 2.8421052,-2.842106 2.8421053,0 2.8421053,0 2.8421053,2.842106 0,2.842105 0,2.842105 -2.8421053,2.842105 -2.8421052,0 -2.8421052,0 -2.8421052,-2.842105 z M 26.526316,45.195362 c 0,-5.052632 0,-5.052632 5.052631,-5.052632 5.052632,0 5.052632,0 5.052632,5.052632 0,5.052631 0,5.052631 -5.052632,5.052631 -5.052631,0 -5.052631,0 -5.052631,-5.052631 z m 84.890744,-5.73484 c -3.82873,-0.911967 -9.08597,-4.318794 -11.438398,-7.412383 -5.818294,-7.651415 -5.020945,-19.28418 1.788548,-26.0936765 3.85044,-3.85043 7.01665,-5.15558998 13.27683,-5.47286998 4.81834,-0.24421 5.86815,-0.0925 8.87093,1.28224998 4.50936,2.06445 7.43249,4.71971 9.69783,8.8090865 1.69473,3.059335 1.86061,3.894998 1.85785,9.359275 -0.003,5.293346 -0.20371,6.381099 -1.70695,9.235799 -4.128,7.839236 -13.84899,12.316575 -22.34664,10.292519 z m 12.19773,-8.558056 c 2.9332,-1.682607 5.51622,-5.504325 6.1815,-9.145861 1.13998,-6.239854 -3.96054,-13.2225255 -10.74366,-14.7081925 -1.75876,-0.38521 -1.71532,-0.31135 0.60531,1.029231 1.37503,0.794324 3.3559,2.6619575 4.40194,4.1502965 1.5645,2.225998 1.94037,3.457548 2.1187,6.942009 0.27121,5.298882 -1.38914,8.906454 -5.547,12.052397 -3.24964,2.458759 -1.54131,2.27558 2.98321,-0.31988 z M 10.736842,32.247993 c 0,-6.631578 0,-6.631578 6.631579,-6.631578 6.631579,0 6.631579,0 6.631579,6.631578 0,6.631579 0,6.631579 -6.631579,6.631579 -6.631579,0 -6.631579,0 -6.631579,-6.631579 z m 190.101178,5.40989 c -7.17598,-2.182831 -11.36434,-7.973656 -11.36434,-15.712313 0,-6.14903 2.4813,-10.427504 8.17628,-14.0982665 2.47945,-1.598151 3.38519,-1.809841 7.74373,-1.809841 3.61474,0 5.65325,0.33721 7.61608,1.259852 2.68693,1.263008 6.14812,4.0539785 6.14812,4.9576065 0,0.265169 -0.99148,1.443108 -2.20329,2.617643 -2.2033,2.135518 -2.2033,2.135518 -3.63158,0.829351 -5.06276,-4.629894 -10.83694,-4.353042 -14.69456,0.704553 -2.91857,3.826436 -1.94688,10.854119 1.8442,13.338129 3.64541,2.388564 9.43372,1.899471 12.4533,-1.052261 1.96003,-1.91599 1.96003,-1.91599 4.24691,0.188255 1.25779,1.157334 2.43212,2.203632 2.60964,2.325106 0.17751,0.121475 -0.86612,1.280052 -2.31919,2.574618 -4.16374,3.709562 -11.52977,5.427561 -16.6253,3.877568 z M 154.10526,21.826941 c 0,-15.7894785 0,-15.7894785 3.47369,-15.7894785 3.47368,0 3.47368,0 3.47368,12.3157945 0,12.315789 0,12.315789 7.57895,12.315789 7.57894,0 7.57894,0 7.57894,3.473684 0,3.473684 0,3.473684 -11.05263,3.473684 -11.05263,0 -11.05263,0 -11.05263,-15.789473 z m 24.63158,-0.03152 c 0,-15.8209885 0,-15.8209885 3.63158,-15.6315785 3.63158,0.18941 3.63158,0.18941 3.80051,15.8209935 0.16893,15.631578 0.16893,15.631578 -3.63158,15.631578 -3.80051,0 -3.80051,0 -3.80051,-15.820991 z m 43.57895,0.03152 c 0,-15.7894785 0,-15.7894785 3.47368,-15.7894785 3.47369,0 3.47369,0 3.47369,15.7894785 0,15.789473 0,15.789473 -3.47369,15.789473 -3.47368,0 -3.47368,0 -3.47368,-15.789473 z M 240,25.300625 c 0,-12.315789 0,-12.315789 -4.45406,-12.315789 -4.45406,0 -4.45406,0 -4.26316,-3.3157905 0.1909,-3.315793 0.1909,-3.315793 12.66459,-3.487033 12.47368,-0.17125 12.47368,-0.17125 12.47368,3.315787 0,3.4870365 0,3.4870365 -4.42105,3.4870365 -4.42105,0 -4.42105,0 -4.42105,12.315789 0,12.315789 0,12.315789 -3.78948,12.315789 -3.78947,0 -3.78947,0 -3.78947,-12.315789 z m 12.63158,11.989114 c 0,-0.687609 9.74748,-26.153984 10.81053,-28.2437025 C 263.74895,8.4428555 264,7.5191705 264,6.9934045 c 0,-0.720832 0.74598,-0.955942 3.03313,-0.955942 3.03313,0 3.03313,0 4.15888,3.315794 0.61917,1.8236845 1.42387,4.0263165 1.78822,4.8947375 0.36435,0.868421 0.87661,2.147368 1.13836,2.842105 1.08782,2.887377 6.9115,18.401651 7.29019,19.421052 0.36242,0.975623 -0.0349,1.105263 -3.38769,1.105263 -3.79827,0 -3.79827,0 -4.89087,-3.473684 -1.09261,-3.473684 -1.09261,-3.473684 -5.9742,-3.473684 -4.8816,0 -4.8816,0 -6.13866,3.315789 -1.25707,3.31579 -1.25707,3.31579 -4.82143,3.505203 -1.9604,0.104177 -3.56435,0.01404 -3.56435,-0.200299 z M 268.8018,21.195362 c -0.73015,-2.084211 -1.50027,-3.789474 -1.71139,-3.789474 -0.2111,0 -0.96609,1.705263 -1.67774,3.789474 -1.29392,3.789474 -1.29392,3.789474 1.71138,3.789474 3.00529,0 3.00529,0 1.67775,-3.789474 z m 14.77715,0.631579 c 0,-15.7894785 0,-15.7894785 6.78947,-15.7859485 7.91286,0.004 11.11452,0.73537 13.37995,3.056016 4.63003,4.7428755 4.06675,11.4782155 -1.32506,15.8442345 -1.26421,1.023694 -1.23617,1.10615 2.27785,6.697918 3.55782,5.661464 3.55782,5.661464 -0.38579,5.852868 -4.33968,0.210628 -4.70486,-0.03491 -7.17411,-4.823902 -2.26298,-4.388924 -3.49104,-5.788555 -5.079,-5.788555 -1.50641,0 -1.53595,0.103243 -1.53595,5.368421 0,5.368421 0,5.368421 -3.47368,5.368421 -3.47368,0 -3.47368,0 -3.47368,-15.789473 z m 15.03157,-2.652632 c 0.41685,-0.416842 0.7579,-1.688491 0.7579,-2.825886 0,-1.651245 -0.37551,-2.262176 -1.86337,-3.031579 -1.02486,-0.529973 -3.01433,-0.963587 -4.42106,-0.963587 -2.55768,0 -2.55768,0 -2.55768,3.789473 0,3.789474 0,3.789474 3.66316,3.789474 2.01474,0 4.00421,-0.341053 4.42105,-0.757895 z M 26.526316,13.932204 c 0,-9.7894715 0,-9.7894715 9.789473,-9.7894715 9.789474,0 9.789474,0 9.789474,9.7894715 0,9.789474 0,9.789474 -9.789474,9.789474 -9.789473,0 -9.789473,0 -9.789473,-9.789474 z M 1.2631579,9.1953615 c 0,-5.052629 0,-5.052629 5.0526315,-5.052629 5.0526316,0 5.0526316,0 5.0526316,5.052629 0,5.0526325 0,5.0526325 -5.0526316,5.0526325 -5.0526315,0 -5.0526315,0 -5.0526315,-5.0526325 z"
       id="path216" />
  </g>
</svg>
